<svg xmlns="http://www.w3.org/2000/svg" width="920" height="460" viewBox="0 0 920 460" font-family="ui-monospace, 'JetBrains Mono', monospace"><rect width="920" height="460" rx="14" fill="#111418"/><text x="28" y="34" fill="#E6E1DA" font-size="17" font-weight="700">Cost vs quality - scored routes only</text><text x="28" y="54" fill="#8B93A1" font-size="11">company-research - 3 companies - 9 boolean checks - 2026-06-10</text><text x="28" y="70" fill="#8B93A1" font-size="10.5">0 quarantined route(s) excluded from the scatter but retained in the leaderboard.</text><line x1="70" y1="78" x2="70" y2="398" stroke="#2A2F37"/><line x1="70" y1="398" x2="610" y2="398" stroke="#2A2F37"/><text x="60" y="402" fill="#8B93A1" font-size="10" text-anchor="end">0%</text><line x1="70" y1="398" x2="610" y2="398" stroke="#2A2F37" stroke-dasharray="2 4" opacity="0.5"/><text x="60" y="242" fill="#8B93A1" font-size="10" text-anchor="end">50%</text><line x1="70" y1="238" x2="610" y2="238" stroke="#2A2F37" stroke-dasharray="2 4" opacity="0.5"/><text x="60" y="82" fill="#8B93A1" font-size="10" text-anchor="end">100%</text><line x1="70" y1="78" x2="610" y2="78" stroke="#2A2F37" stroke-dasharray="2 4" opacity="0.5"/><text x="340" y="442" fill="#8B93A1" font-size="11" text-anchor="middle">cost per run (USD)</text><text x="20" y="238" fill="#8B93A1" font-size="11" text-anchor="middle" transform="rotate(-90 20 238)">quality (checks passed %)</text><line x1="70" y1="78" x2="610" y2="78" stroke="#3FB37F" stroke-dasharray="5 3" opacity="0.7"/><text x="610" y="72" fill="#3FB37F" font-size="9.5" text-anchor="end">GATE: all checks</text><circle cx="160.9268119" cy="78" r="9" fill="#3FB37F"/><text x="160.9268119" y="82" fill="#111418" font-size="9" text-anchor="middle" font-weight="700">1</text><circle cx="70" cy="149.1111111111111" r="9" fill="#D97757"/><text x="70" y="153.1111111111111" fill="#111418" font-size="9" text-anchor="middle" font-weight="700">2</text><text x="644" y="78" fill="#E6E1DA" font-size="12" font-weight="700">Legend</text><circle cx="651" cy="98" r="7" fill="#3FB37F"/><text x="651" y="101" fill="#111418" font-size="8" text-anchor="middle" font-weight="700">1</text><text x="666" y="102" fill="#E6E1DA" font-size="10.5">deepseek/deepseek-v4-flash</text><text x="892" y="102" fill="#8B93A1" font-size="10" text-anchor="end">9/9 - 100% - $0.0034</text><circle cx="651" cy="122" r="7" fill="#D97757"/><text x="651" y="125" fill="#111418" font-size="8" text-anchor="middle" font-weight="700">2</text><text x="666" y="126" fill="#E6E1DA" font-size="10.5">openrouter/free-auto -&gt; nvidi...</text><text x="892" y="126" fill="#8B93A1" font-size="10" text-anchor="end">7/9 - 78% - $0.0000</text><text x="76" y="94" fill="#3FB37F" font-size="11" font-weight="700">Cheapest gate-clearer: deepseek/deepseek-v4-flash</text></svg>