<svg xmlns="http://www.w3.org/2000/svg" width="760" height="420" viewBox="0 0 760 420" font-family="ui-monospace, 'JetBrains Mono', monospace"><rect width="760" height="420" rx="14" fill="#111418"/><text x="28" y="34" fill="#E6E1DA" font-size="17" font-weight="700">Cost vs quality — route to the cheapest that clears the gate</text><text x="28" y="54" fill="#8B93A1" font-size="11">company-research · 3 companies · 6 boolean checks · 2026-06-07</text><line x1="70" y1="70" x2="70" y2="360" stroke="#2A2F37"/><line x1="70" y1="360" x2="720" y2="360" stroke="#2A2F37"/><text x="60" y="364" fill="#8B93A1" font-size="10" text-anchor="end">0%</text><line x1="70" y1="360" x2="720" y2="360" stroke="#2A2F37" stroke-dasharray="2 4" opacity="0.5"/><text x="60" y="219" fill="#8B93A1" font-size="10" text-anchor="end">50%</text><line x1="70" y1="215" x2="720" y2="215" stroke="#2A2F37" stroke-dasharray="2 4" opacity="0.5"/><text x="60" y="74" fill="#8B93A1" font-size="10" text-anchor="end">100%</text><line x1="70" y1="70" x2="720" y2="70" stroke="#2A2F37" stroke-dasharray="2 4" opacity="0.5"/><text x="395" y="404" fill="#8B93A1" font-size="11" text-anchor="middle">cost per run (USD) →</text><text x="20" y="215" fill="#8B93A1" font-size="11" text-anchor="middle" transform="rotate(-90 20 215)">quality (checks passed %)</text><line x1="70" y1="70" x2="720" y2="70" stroke="#3FB37F" stroke-dasharray="5 3" opacity="0.7"/><text x="720" y="64" fill="#3FB37F" font-size="9.5" text-anchor="end">GATE: all checks</text><circle cx="91.09553335556183" cy="70" r="7" fill="#3FB37F"/><text x="102.09553335556183" y="74" fill="#E6E1DA" font-size="10.5">gemini-3.1-flash-lite ($0.0076)</text><circle cx="106.17409183786879" cy="70" r="7" fill="#3FB37F"/><text x="117.17409183786879" y="74" fill="#E6E1DA" font-size="10.5">gpt-5.4-nano ($0.0130)</text><circle cx="111.93891225730334" cy="70" r="7" fill="#3FB37F"/><text x="122.93891225730334" y="74" fill="#E6E1DA" font-size="10.5">gpt-5.4-mini ($0.0151)</text><circle cx="403.71079022288336" cy="70" r="7" fill="#3FB37F"/><text x="414.71079022288336" y="74" fill="#E6E1DA" font-size="10.5">claude-haiku-4-5 ($0.1201)</text><circle cx="567.1985688271051" cy="70" r="7" fill="#3FB37F"/><text x="578.1985688271051" y="74" fill="#E6E1DA" font-size="10.5">claude-sonnet-4-6 ($0.1789)</text><circle cx="720" cy="118.33333333333329" r="7" fill="#D97757"/><text x="731" y="122.33333333333329" fill="#E6E1DA" font-size="10.5">gemini-3.5-flash ($0.2339)</text><text x="76" y="86" fill="#D97757" font-size="11" font-weight="700">◄ route here: gemini-3.1-flash-lite — cheapest clearing the gate</text></svg>