<svg xmlns="http://www.w3.org/2000/svg" width="760" height="420" viewBox="0 0 760 420" font-family="ui-monospace, 'JetBrains Mono', monospace"><rect width="760" height="420" rx="14" fill="#111418"/><text x="28" y="34" fill="#E6E1DA" font-size="17" font-weight="700">Cost vs quality — route to the cheapest that clears the gate</text><text x="28" y="54" fill="#8B93A1" font-size="11">company-research · 3 companies · 9 boolean checks · 2026-06-09</text><line x1="70" y1="70" x2="70" y2="360" stroke="#2A2F37"/><line x1="70" y1="360" x2="720" y2="360" stroke="#2A2F37"/><text x="60" y="364" fill="#8B93A1" font-size="10" text-anchor="end">0%</text><line x1="70" y1="360" x2="720" y2="360" stroke="#2A2F37" stroke-dasharray="2 4" opacity="0.5"/><text x="60" y="219" fill="#8B93A1" font-size="10" text-anchor="end">50%</text><line x1="70" y1="215" x2="720" y2="215" stroke="#2A2F37" stroke-dasharray="2 4" opacity="0.5"/><text x="60" y="74" fill="#8B93A1" font-size="10" text-anchor="end">100%</text><line x1="70" y1="70" x2="720" y2="70" stroke="#2A2F37" stroke-dasharray="2 4" opacity="0.5"/><text x="395" y="404" fill="#8B93A1" font-size="11" text-anchor="middle">cost per run (USD) →</text><text x="20" y="215" fill="#8B93A1" font-size="11" text-anchor="middle" transform="rotate(-90 20 215)">quality (checks passed %)</text><line x1="70" y1="70" x2="720" y2="70" stroke="#3FB37F" stroke-dasharray="5 3" opacity="0.7"/><text x="720" y="64" fill="#3FB37F" font-size="9.5" text-anchor="end">GATE: all checks</text><circle cx="519.8670763179167" cy="198.88888888888889" r="7" fill="#D97757"/><text x="530.8670763179167" y="202.88888888888889" fill="#E6E1DA" font-size="10.5">claude-sonnet-4-6 ($0.7474)</text><circle cx="720" cy="198.88888888888889" r="7" fill="#D97757"/><text x="731" y="202.88888888888889" fill="#E6E1DA" font-size="10.5">gemini-3.5-flash ($1.0799)</text><circle cx="73.40669137167424" cy="327.77777777777777" r="7" fill="#D97757"/><text x="84.40669137167424" y="331.77777777777777" fill="#E6E1DA" font-size="10.5">gpt-5.4-nano ($0.0057)</text><circle cx="75.50858934221529" cy="327.77777777777777" r="7" fill="#D97757"/><text x="86.50858934221529" y="331.77777777777777" fill="#E6E1DA" font-size="10.5">gpt-5.4-mini ($0.0092)</text><circle cx="78.50025186514473" cy="327.77777777777777" r="7" fill="#D97757"/><text x="89.50025186514473" y="331.77777777777777" fill="#E6E1DA" font-size="10.5">gemini-3.1-flash-lite ($0.0141)</text><circle cx="109.1934574324756" cy="327.77777777777777" r="7" fill="#D97757"/><text x="120.1934574324756" y="331.77777777777777" fill="#E6E1DA" font-size="10.5">claude-haiku-4-5 ($0.0651)</text><circle cx="70" cy="360" r="7" fill="#D97757"/><text x="81" y="364" fill="#E6E1DA" font-size="10.5">nvidia/nemotron-3-super-120b-a12b:free ($0.0000)</text><circle cx="70" cy="360" r="7" fill="#D97757"/><text x="81" y="364" fill="#E6E1DA" font-size="10.5">nvidia/nemotron-3-ultra-550b-a55b:free ($0.0000)</text><circle cx="70" cy="360" r="7" fill="#D97757"/><text x="81" y="364" fill="#E6E1DA" font-size="10.5">qwen/qwen3-coder:free ($0.0000)</text><circle cx="70" cy="360" r="7" fill="#D97757"/><text x="81" y="364" fill="#E6E1DA" font-size="10.5">openrouter/owl-alpha ($0.0000)</text><circle cx="70" cy="360" r="7" fill="#D97757"/><text x="81" y="364" fill="#E6E1DA" font-size="10.5">qwen/qwen3-next-80b-a3b-instruct:free ($0.0000)</text><circle cx="70" cy="360" r="7" fill="#D97757"/><text x="81" y="364" fill="#E6E1DA" font-size="10.5">openrouter/free-auto -&gt; nvidia/nemotron-3-super-120b-a12b:free ($0.0000)</text></svg>