<svg xmlns="http://www.w3.org/2000/svg" width="900" height="1120" viewBox="0 0 900 1120" font-family="ui-monospace, 'JetBrains Mono', monospace"><rect width="900" height="1120" rx="14" fill="#111418"/><text x="28" y="38" fill="#E6E1DA" font-size="18" font-weight="700">NodeRoom diligence benchmark</text><text x="28" y="60" fill="#8B93A1" font-size="11">company-research - 1 companies - 9 boolean checks - 2026-06-11</text><text x="28" y="80" fill="#8B93A1" font-size="10.5">Scored candidates first. Zero-cost dead routes and integration errors are quarantined below.</text><line x1="28" y1="86" x2="872" y2="86" stroke="#2A2F37"/><text x="28" y="108" fill="#8B93A1" font-size="12">1</text><text x="52" y="108" fill="#E6E1DA" font-size="12.5">nex-agi/nex-n2-pro:free</text><rect x="330" y="95" width="300" height="14" rx="4" fill="#171B20"/><rect x="330" y="95" width="300" height="14" rx="4" fill="#3FB37F"/><text x="640" y="107" fill="#3FB37F" font-size="11.5" font-weight="700">9/9</text><text x="872" y="107" fill="#8B93A1" font-size="11" text-anchor="end">$0.0000 - 6s - 2 tools</text><text x="28" y="142" fill="#8B93A1" font-size="12">2</text><text x="52" y="142" fill="#E6E1DA" font-size="12.5">nvidia/nemotron-3-ultra-550b-a55b:free</text><rect x="330" y="129" width="300" height="14" rx="4" fill="#171B20"/><rect x="330" y="129" width="300" height="14" rx="4" fill="#3FB37F"/><text x="640" y="141" fill="#3FB37F" font-size="11.5" font-weight="700">9/9</text><text x="872" y="141" fill="#8B93A1" font-size="11" text-anchor="end">$0.0000 - 65s - 3 tools</text><text x="28" y="176" fill="#8B93A1" font-size="12">3</text><text x="52" y="176" fill="#E6E1DA" font-size="12.5">nvidia/nemotron-3-super-120b-a12b:free</text><rect x="330" y="163" width="300" height="14" rx="4" fill="#171B20"/><rect x="330" y="163" width="300" height="14" rx="4" fill="#3FB37F"/><text x="640" y="175" fill="#3FB37F" font-size="11.5" font-weight="700">9/9</text><text x="872" y="175" fill="#8B93A1" font-size="11" text-anchor="end">$0.0000 - 46s - 3 tools</text><text x="28" y="210" fill="#8B93A1" font-size="12">4</text><text x="52" y="210" fill="#E6E1DA" font-size="12.5">google/gemma-4-31b-it:free</text><rect x="330" y="197" width="300" height="14" rx="4" fill="#171B20"/><rect x="330" y="197" width="300" height="14" rx="4" fill="#3FB37F"/><text x="640" y="209" fill="#3FB37F" font-size="11.5" font-weight="700">9/9</text><text x="872" y="209" fill="#8B93A1" font-size="11" text-anchor="end">$0.0000 - 24s - 10 tools</text><text x="28" y="244" fill="#8B93A1" font-size="12">5</text><text x="52" y="244" fill="#E6E1DA" font-size="12.5">openai/gpt-oss-120b:free</text><rect x="330" y="231" width="300" height="14" rx="4" fill="#171B20"/><rect x="330" y="231" width="300" height="14" rx="4" fill="#3FB37F"/><text x="640" y="243" fill="#3FB37F" font-size="11.5" font-weight="700">9/9</text><text x="872" y="243" fill="#8B93A1" font-size="11" text-anchor="end">$0.0000 - 23s - 3 tools</text><text x="28" y="278" fill="#8B93A1" font-size="12">6</text><text x="52" y="278" fill="#E6E1DA" font-size="12.5">poolside/laguna-m.1:free</text><rect x="330" y="265" width="300" height="14" rx="4" fill="#171B20"/><rect x="330" y="265" width="300" height="14" rx="4" fill="#3FB37F"/><text x="640" y="277" fill="#3FB37F" font-size="11.5" font-weight="700">9/9</text><text x="872" y="277" fill="#8B93A1" font-size="11" text-anchor="end">$0.0000 - 94s - 2 tools</text><text x="28" y="312" fill="#8B93A1" font-size="12">7</text><text x="52" y="312" fill="#E6E1DA" font-size="12.5">poolside/laguna-xs.2:free</text><rect x="330" y="299" width="300" height="14" rx="4" fill="#171B20"/><rect x="330" y="299" width="300" height="14" rx="4" fill="#3FB37F"/><text x="640" y="311" fill="#3FB37F" font-size="11.5" font-weight="700">9/9</text><text x="872" y="311" fill="#8B93A1" font-size="11" text-anchor="end">$0.0000 - 33s - 7 tools</text><text x="28" y="346" fill="#8B93A1" font-size="12">8</text><text x="52" y="346" fill="#E6E1DA" font-size="12.5">ibm-granite/granite-4.1-8b</text><rect x="330" y="333" width="300" height="14" rx="4" fill="#171B20"/><rect x="330" y="333" width="300" height="14" rx="4" fill="#3FB37F"/><text x="640" y="345" fill="#3FB37F" font-size="11.5" font-weight="700">9/9</text><text x="872" y="345" fill="#8B93A1" font-size="11" text-anchor="end">$0.0009 - 6s - 5 tools</text><text x="28" y="380" fill="#8B93A1" font-size="12">9</text><text x="52" y="380" fill="#E6E1DA" font-size="12.5">z-ai/glm-4.7-flash</text><rect x="330" y="367" width="300" height="14" rx="4" fill="#171B20"/><rect x="330" y="367" width="300" height="14" rx="4" fill="#3FB37F"/><text x="640" y="379" fill="#3FB37F" font-size="11.5" font-weight="700">9/9</text><text x="872" y="379" fill="#8B93A1" font-size="11" text-anchor="end">$0.0013 - 17s - 12 tools</text><text x="28" y="414" fill="#8B93A1" font-size="12">10</text><text x="52" y="414" fill="#E6E1DA" font-size="12.5">inclusionai/ring-2.6-1t</text><rect x="330" y="401" width="300" height="14" rx="4" fill="#171B20"/><rect x="330" y="401" width="300" height="14" rx="4" fill="#3FB37F"/><text x="640" y="413" fill="#3FB37F" font-size="11.5" font-weight="700">9/9</text><text x="872" y="413" fill="#8B93A1" font-size="11" text-anchor="end">$0.0015 - 17s - 3 tools</text><text x="28" y="448" fill="#8B93A1" font-size="12">11</text><text x="52" y="448" fill="#E6E1DA" font-size="12.5">xiaomi/mimo-v2.5</text><rect x="330" y="435" width="300" height="14" rx="4" fill="#171B20"/><rect x="330" y="435" width="300" height="14" rx="4" fill="#3FB37F"/><text x="640" y="447" fill="#3FB37F" font-size="11.5" font-weight="700">9/9</text><text x="872" y="447" fill="#8B93A1" font-size="11" text-anchor="end">$0.0016 - 31s - 2 tools</text><text x="28" y="482" fill="#8B93A1" font-size="12">12</text><text x="52" y="482" fill="#E6E1DA" font-size="12.5">deepseek/deepseek-v4-flash</text><rect x="330" y="469" width="300" height="14" rx="4" fill="#171B20"/><rect x="330" y="469" width="300" height="14" rx="4" fill="#3FB37F"/><text x="640" y="481" fill="#3FB37F" font-size="11.5" font-weight="700">9/9</text><text x="872" y="481" fill="#8B93A1" font-size="11" text-anchor="end">$0.0020 - 39s - 5 tools</text><text x="28" y="516" fill="#8B93A1" font-size="12">13</text><text x="52" y="516" fill="#E6E1DA" font-size="12.5">stepfun/step-3.7-flash</text><rect x="330" y="503" width="300" height="14" rx="4" fill="#171B20"/><rect x="330" y="503" width="300" height="14" rx="4" fill="#3FB37F"/><text x="640" y="515" fill="#3FB37F" font-size="11.5" font-weight="700">9/9</text><text x="872" y="515" fill="#8B93A1" font-size="11" text-anchor="end">$0.0031 - 22s - 2 tools</text><text x="28" y="550" fill="#8B93A1" font-size="12">14</text><text x="52" y="550" fill="#E6E1DA" font-size="12.5">deepseek/deepseek-v4-pro</text><rect x="330" y="537" width="300" height="14" rx="4" fill="#171B20"/><rect x="330" y="537" width="300" height="14" rx="4" fill="#3FB37F"/><text x="640" y="549" fill="#3FB37F" font-size="11.5" font-weight="700">9/9</text><text x="872" y="549" fill="#8B93A1" font-size="11" text-anchor="end">$0.0043 - 33s - 2 tools</text><text x="28" y="584" fill="#8B93A1" font-size="12">15</text><text x="52" y="584" fill="#E6E1DA" font-size="12.5">google/gemini-3.1-flash-lite</text><rect x="330" y="571" width="300" height="14" rx="4" fill="#171B20"/><rect x="330" y="571" width="300" height="14" rx="4" fill="#3FB37F"/><text x="640" y="583" fill="#3FB37F" font-size="11.5" font-weight="700">9/9</text><text x="872" y="583" fill="#8B93A1" font-size="11" text-anchor="end">$0.0045 - 19s - 8 tools</text><text x="28" y="618" fill="#8B93A1" font-size="12">16</text><text x="52" y="618" fill="#E6E1DA" font-size="12.5">minimax/minimax-m3</text><rect x="330" y="605" width="300" height="14" rx="4" fill="#171B20"/><rect x="330" y="605" width="300" height="14" rx="4" fill="#3FB37F"/><text x="640" y="617" fill="#3FB37F" font-size="11.5" font-weight="700">9/9</text><text x="872" y="617" fill="#8B93A1" font-size="11" text-anchor="end">$0.0053 - 41s - 3 tools</text><text x="28" y="652" fill="#8B93A1" font-size="12">17</text><text x="52" y="652" fill="#E6E1DA" font-size="12.5">nvidia/nemotron-3-ultra-550b-a55b</text><rect x="330" y="639" width="300" height="14" rx="4" fill="#171B20"/><rect x="330" y="639" width="300" height="14" rx="4" fill="#3FB37F"/><text x="640" y="651" fill="#3FB37F" font-size="11.5" font-weight="700">9/9</text><text x="872" y="651" fill="#8B93A1" font-size="11" text-anchor="end">$0.0064 - 26s - 2 tools</text><text x="28" y="686" fill="#8B93A1" font-size="12">18</text><text x="52" y="686" fill="#E6E1DA" font-size="12.5">qwen/qwen3.7-plus</text><rect x="330" y="673" width="300" height="14" rx="4" fill="#171B20"/><rect x="330" y="673" width="300" height="14" rx="4" fill="#3FB37F"/><text x="640" y="685" fill="#3FB37F" font-size="11.5" font-weight="700">9/9</text><text x="872" y="685" fill="#8B93A1" font-size="11" text-anchor="end">$0.0096 - 67s - 3 tools</text><text x="28" y="720" fill="#8B93A1" font-size="12">19</text><text x="52" y="720" fill="#E6E1DA" font-size="12.5">openrouter/free</text><rect x="330" y="707" width="300" height="14" rx="4" fill="#171B20"/><rect x="330" y="707" width="266.66666666666663" height="14" rx="4" fill="#D97757"/><text x="640" y="719" fill="#D97757" font-size="11.5" font-weight="700">8/9</text><text x="872" y="719" fill="#8B93A1" font-size="11" text-anchor="end">$0.0000 - 110s - 6 tools</text><text x="28" y="754" fill="#8B93A1" font-size="12">20</text><text x="52" y="754" fill="#E6E1DA" font-size="12.5">nvidia/nemotron-nano-9b-v2:free</text><rect x="330" y="741" width="300" height="14" rx="4" fill="#171B20"/><rect x="330" y="741" width="266.66666666666663" height="14" rx="4" fill="#D97757"/><text x="640" y="753" fill="#D97757" font-size="11.5" font-weight="700">8/9</text><text x="872" y="753" fill="#8B93A1" font-size="11" text-anchor="end">$0.0000 - 110s - 3 tools</text><text x="28" y="788" fill="#8B93A1" font-size="12">21</text><text x="52" y="788" fill="#E6E1DA" font-size="12.5">openai/gpt-oss-20b:free</text><rect x="330" y="775" width="300" height="14" rx="4" fill="#171B20"/><rect x="330" y="775" width="33.33333333333333" height="14" rx="4" fill="#D97757"/><text x="640" y="787" fill="#D97757" font-size="11.5" font-weight="700">1/9</text><text x="872" y="787" fill="#8B93A1" font-size="11" text-anchor="end">$0.0000 - 20s - 6 tools</text><text x="28" y="821" fill="#8B93A1" font-size="10.5" font-weight="700">Quarantined: no scored work product or benchmark integration error</text><text x="28" y="850" fill="#8B93A1" font-size="12">-</text><text x="52" y="850" fill="#8B93A1" font-size="12.5">qwen/qwen3-coder:free</text><rect x="330" y="837" width="300" height="14" rx="4" fill="#171B20"/><rect x="330" y="837" width="2" height="14" rx="4" fill="#E0564E"/><text x="640" y="849" fill="#E0564E" font-size="11.5" font-weight="700">ERR</text><text x="872" y="849" fill="#8B93A1" font-size="11" text-anchor="end">not scored - route smoke failed: Delay wa - 0 tools</text><text x="28" y="884" fill="#8B93A1" font-size="12">-</text><text x="52" y="884" fill="#8B93A1" font-size="12.5">openrouter/owl-alpha</text><rect x="330" y="871" width="300" height="14" rx="4" fill="#171B20"/><rect x="330" y="871" width="2" height="14" rx="4" fill="#E0564E"/><text x="640" y="883" fill="#E0564E" font-size="11.5" font-weight="700">ERR</text><text x="872" y="883" fill="#8B93A1" font-size="11" text-anchor="end">not scored - AI_APICallError: Invalid JSO - 0 tools</text><text x="28" y="918" fill="#8B93A1" font-size="12">-</text><text x="52" y="918" fill="#8B93A1" font-size="12.5">qwen/qwen3-next-80b-a3b-instruct:free</text><rect x="330" y="905" width="300" height="14" rx="4" fill="#171B20"/><rect x="330" y="905" width="2" height="14" rx="4" fill="#E0564E"/><text x="640" y="917" fill="#E0564E" font-size="11.5" font-weight="700">ERR</text><text x="872" y="917" fill="#8B93A1" font-size="11" text-anchor="end">not scored - route smoke failed: Delay wa - 0 tools</text><text x="28" y="952" fill="#8B93A1" font-size="12">-</text><text x="52" y="952" fill="#8B93A1" font-size="12.5">google/gemma-4-26b-a4b-it:free</text><rect x="330" y="939" width="300" height="14" rx="4" fill="#171B20"/><rect x="330" y="939" width="2" height="14" rx="4" fill="#E0564E"/><text x="640" y="951" fill="#E0564E" font-size="11.5" font-weight="700">ERR</text><text x="872" y="951" fill="#8B93A1" font-size="11" text-anchor="end">not scored - route smoke failed: Failed a - 0 tools</text><text x="28" y="986" fill="#8B93A1" font-size="12">-</text><text x="52" y="986" fill="#8B93A1" font-size="12.5">meta-llama/llama-3.3-70b-instruct:free</text><rect x="330" y="973" width="300" height="14" rx="4" fill="#171B20"/><rect x="330" y="973" width="2" height="14" rx="4" fill="#E0564E"/><text x="640" y="985" fill="#E0564E" font-size="11.5" font-weight="700">ERR</text><text x="872" y="985" fill="#8B93A1" font-size="11" text-anchor="end">not scored - route smoke failed: Failed a - 0 tools</text><text x="28" y="1020" fill="#8B93A1" font-size="12">-</text><text x="52" y="1020" fill="#8B93A1" font-size="12.5">inclusionai/ling-2.6-flash</text><rect x="330" y="1007" width="300" height="14" rx="4" fill="#171B20"/><rect x="330" y="1007" width="2" height="14" rx="4" fill="#E0564E"/><text x="640" y="1019" fill="#E0564E" font-size="11.5" font-weight="700">ERR</text><text x="872" y="1019" fill="#8B93A1" font-size="11" text-anchor="end">not scored - AI_RetryError: Failed after  - 0 tools</text><text x="28" y="1054" fill="#8B93A1" font-size="12">-</text><text x="52" y="1054" fill="#8B93A1" font-size="12.5">tencent/hy3-preview</text><rect x="330" y="1041" width="300" height="14" rx="4" fill="#171B20"/><rect x="330" y="1041" width="2" height="14" rx="4" fill="#E0564E"/><text x="640" y="1053" fill="#E0564E" font-size="11.5" font-weight="700">ERR</text><text x="872" y="1053" fill="#8B93A1" font-size="11" text-anchor="end">not scored - AI_APICallError: Invalid JSO - 0 tools</text><text x="28" y="1104" fill="#8B93A1" font-size="10">Quarantine keeps provider/router failures visible without treating them as cost-quality candidates.</text></svg>