<svg xmlns="http://www.w3.org/2000/svg" width="760" height="556" viewBox="0 0 760 556" font-family="ui-monospace, 'JetBrains Mono', monospace"><rect width="760" height="556" rx="14" fill="#111418"/><text x="28" y="38" fill="#E6E1DA" font-size="18" font-weight="700">NodeRoom diligence benchmark</text><text x="28" y="60" fill="#8B93A1" font-size="11">company-research · 3 companies · 9 boolean checks · 2026-06-09</text><line x1="28" y1="70" x2="732" y2="70" stroke="#2A2F37"/><text x="28" y="90" fill="#8B93A1" font-size="12">1</text><text x="48" y="90" fill="#E6E1DA" font-size="12.5">claude-sonnet-4-6</text><rect x="250" y="77" width="300" height="14" rx="4" fill="#171B20"/><rect x="250" y="77" width="166.66666666666669" height="14" rx="4" fill="#D97757"/><text x="560" y="89" fill="#D97757" font-size="11.5" font-weight="700">5/9</text><text x="732" y="89" fill="#8B93A1" font-size="11" text-anchor="end">$0.7474 · 165s</text><text x="28" y="124" fill="#8B93A1" font-size="12">2</text><text x="48" y="124" fill="#E6E1DA" font-size="12.5">gemini-3.5-flash</text><rect x="250" y="111" width="300" height="14" rx="4" fill="#171B20"/><rect x="250" y="111" width="166.66666666666669" height="14" rx="4" fill="#D97757"/><text x="560" y="123" fill="#D97757" font-size="11.5" font-weight="700">5/9</text><text x="732" y="123" fill="#8B93A1" font-size="11" text-anchor="end">$1.0799 · 143s</text><text x="28" y="158" fill="#8B93A1" font-size="12">3</text><text x="48" y="158" fill="#E6E1DA" font-size="12.5">gpt-5.4-nano</text><rect x="250" y="145" width="300" height="14" rx="4" fill="#171B20"/><rect x="250" y="145" width="33.33333333333333" height="14" rx="4" fill="#D97757"/><text x="560" y="157" fill="#D97757" font-size="11.5" font-weight="700">1/9</text><text x="732" y="157" fill="#8B93A1" font-size="11" text-anchor="end">$0.0057 · 16s</text><text x="28" y="192" fill="#8B93A1" font-size="12">4</text><text x="48" y="192" fill="#E6E1DA" font-size="12.5">gpt-5.4-mini</text><rect x="250" y="179" width="300" height="14" rx="4" fill="#171B20"/><rect x="250" y="179" width="33.33333333333333" height="14" rx="4" fill="#D97757"/><text x="560" y="191" fill="#D97757" font-size="11.5" font-weight="700">1/9</text><text x="732" y="191" fill="#8B93A1" font-size="11" text-anchor="end">$0.0092 · 7s</text><text x="28" y="226" fill="#8B93A1" font-size="12">5</text><text x="48" y="226" fill="#E6E1DA" font-size="12.5">gemini-3.1-flash-lite</text><rect x="250" y="213" width="300" height="14" rx="4" fill="#171B20"/><rect x="250" y="213" width="33.33333333333333" height="14" rx="4" fill="#D97757"/><text x="560" y="225" fill="#D97757" font-size="11.5" font-weight="700">1/9</text><text x="732" y="225" fill="#8B93A1" font-size="11" text-anchor="end">$0.0141 · 14s</text><text x="28" y="260" fill="#8B93A1" font-size="12">6</text><text x="48" y="260" fill="#E6E1DA" font-size="12.5">claude-haiku-4-5</text><rect x="250" y="247" width="300" height="14" rx="4" fill="#171B20"/><rect x="250" y="247" width="33.33333333333333" height="14" rx="4" fill="#D97757"/><text x="560" y="259" fill="#D97757" font-size="11.5" font-weight="700">1/9</text><text x="732" y="259" fill="#8B93A1" font-size="11" text-anchor="end">$0.0651 · 21s</text><text x="28" y="294" fill="#8B93A1" font-size="12">7</text><text x="48" y="294" fill="#E6E1DA" font-size="12.5">nvidia/nemotron-3-super-120b-a12b:free</text><rect x="250" y="281" width="300" height="14" rx="4" fill="#171B20"/><rect x="250" y="281" width="2" height="14" rx="4" fill="#D97757"/><text x="560" y="293" fill="#D97757" font-size="11.5" font-weight="700">0/9</text><text x="732" y="293" fill="#8B93A1" font-size="11" text-anchor="end">$0.0000 · 25s</text><text x="28" y="328" fill="#8B93A1" font-size="12">8</text><text x="48" y="328" fill="#E6E1DA" font-size="12.5">nvidia/nemotron-3-ultra-550b-a55b:free</text><rect x="250" y="315" width="300" height="14" rx="4" fill="#171B20"/><rect x="250" y="315" width="2" height="14" rx="4" fill="#D97757"/><text x="560" y="327" fill="#D97757" font-size="11.5" font-weight="700">0/9</text><text x="732" y="327" fill="#8B93A1" font-size="11" text-anchor="end">$0.0000 · 25s</text><text x="28" y="362" fill="#8B93A1" font-size="12">9</text><text x="48" y="362" fill="#E6E1DA" font-size="12.5">qwen/qwen3-coder:free</text><rect x="250" y="349" width="300" height="14" rx="4" fill="#171B20"/><rect x="250" y="349" width="2" height="14" rx="4" fill="#D97757"/><text x="560" y="361" fill="#D97757" font-size="11.5" font-weight="700">0/9</text><text x="732" y="361" fill="#8B93A1" font-size="11" text-anchor="end">$0.0000 · 25s</text><text x="28" y="396" fill="#8B93A1" font-size="12">10</text><text x="48" y="396" fill="#E6E1DA" font-size="12.5">openrouter/owl-alpha</text><rect x="250" y="383" width="300" height="14" rx="4" fill="#171B20"/><rect x="250" y="383" width="2" height="14" rx="4" fill="#D97757"/><text x="560" y="395" fill="#D97757" font-size="11.5" font-weight="700">0/9</text><text x="732" y="395" fill="#8B93A1" font-size="11" text-anchor="end">$0.0000 · 25s</text><text x="28" y="430" fill="#8B93A1" font-size="12">11</text><text x="48" y="430" fill="#E6E1DA" font-size="12.5">qwen/qwen3-next-80b-a3b-instruct:free</text><rect x="250" y="417" width="300" height="14" rx="4" fill="#171B20"/><rect x="250" y="417" width="2" height="14" rx="4" fill="#D97757"/><text x="560" y="429" fill="#D97757" font-size="11.5" font-weight="700">0/9</text><text x="732" y="429" fill="#8B93A1" font-size="11" text-anchor="end">$0.0000 · 25s</text><text x="28" y="464" fill="#8B93A1" font-size="12">12</text><text x="48" y="464" fill="#E6E1DA" font-size="12.5">openrouter/free-auto -&gt; nvidia/nemotron-3-super-120b-a12b:free</text><rect x="250" y="451" width="300" height="14" rx="4" fill="#171B20"/><rect x="250" y="451" width="2" height="14" rx="4" fill="#D97757"/><text x="560" y="463" fill="#D97757" font-size="11.5" font-weight="700">0/9</text><text x="732" y="463" fill="#8B93A1" font-size="11" text-anchor="end">$0.0000 · 165s</text><text x="28" y="498" fill="#8B93A1" font-size="12">13</text><text x="48" y="498" fill="#E6E1DA" font-size="12.5">gpt-5.5</text><rect x="250" y="485" width="300" height="14" rx="4" fill="#171B20"/><rect x="250" y="485" width="2" height="14" rx="4" fill="#E0564E"/><text x="560" y="497" fill="#E0564E" font-size="11.5" font-weight="700">ERR</text><text x="732" y="497" fill="#8B93A1" font-size="11" text-anchor="end">— · AI_APICallError: Item </text></svg>