<svg xmlns="http://www.w3.org/2000/svg" width="1060" height="720" viewBox="0 0 1060 720" font-family="ui-monospace, 'JetBrains Mono', monospace"><rect width="1060" height="720" rx="16" fill="#111418"/><text x="28" y="36" fill="#E6E1DA" font-size="19" font-weight="700">NodeRoom production QA evidence ledger</text><text x="28" y="58" fill="#8B93A1" font-size="11">Generated from docs/qa/production-matrix.json | 2026-06-09 | append rows as features grow</text><line x1="28" y1="67" x2="1032" y2="67" stroke="#2A2F37"/><text x="470" y="82" fill="#8B93A1" font-size="11" text-anchor="middle">unit/eval</text><text x="600" y="82" fill="#8B93A1" font-size="11" text-anchor="middle">live</text><text x="730" y="82" fill="#8B93A1" font-size="11" text-anchor="middle">trace</text><text x="860" y="82" fill="#8B93A1" font-size="11" text-anchor="middle">next</text><rect x="22" y="70" width="1016" height="38" rx="8" fill="#14181D" stroke="#2A2F37" opacity="0.98"/><circle cx="42" cy="89" r="6" fill="#D9A441"/><text x="58" y="84" fill="#E6E1DA" font-size="12.5" font-weight="700">Files + spreadsheet</text><text x="58" y="101" fill="#8B93A1" font-size="10.5">Users can upload/view files and work with parsed spreadsh...</text><rect x="428" y="75" width="84" height="24" rx="6" fill="#D9A441" opacity="0.95"/><text x="470" y="91" fill="#111418" font-size="10.5" font-weight="700" text-anchor="middle">covered</text><rect x="558" y="75" width="84" height="24" rx="6" fill="#D9A441" opacity="0.95"/><text x="600" y="91" fill="#111418" font-size="10.5" font-weight="700" text-anchor="middle">covered</text><rect x="688" y="75" width="84" height="24" rx="6" fill="#2A2F37" opacity="0.55"/><text x="730" y="91" fill="#8B93A1" font-size="10.5" font-weight="700" text-anchor="middle">gap</text><rect x="818" y="75" width="84" height="24" rx="6" fill="#D9A441" opacity="0.95"/><text x="860" y="91" fill="#111418" font-size="10.5" font-weight="700" text-anchor="middle">covered</text><text x="1026" y="91" fill="#D9A441" font-size="11" text-anchor="end" font-weight="700">Yellow</text><rect x="22" y="114" width="1016" height="38" rx="8" fill="#171B20" stroke="#2A2F37" opacity="0.98"/><circle cx="42" cy="133" r="6" fill="#D9A441"/><text x="58" y="128" fill="#E6E1DA" font-size="12.5" font-weight="700">Public/private chat + agent</text><text x="58" y="145" fill="#8B93A1" font-size="10.5">Public chat, private chat, public room agent, and private...</text><rect x="428" y="119" width="84" height="24" rx="6" fill="#D9A441" opacity="0.95"/><text x="470" y="135" fill="#111418" font-size="10.5" font-weight="700" text-anchor="middle">covered</text><rect x="558" y="119" width="84" height="24" rx="6" fill="#2A2F37" opacity="0.55"/><text x="600" y="135" fill="#8B93A1" font-size="10.5" font-weight="700" text-anchor="middle">gap</text><rect x="688" y="119" width="84" height="24" rx="6" fill="#2A2F37" opacity="0.55"/><text x="730" y="135" fill="#8B93A1" font-size="10.5" font-weight="700" text-anchor="middle">gap</text><rect x="818" y="119" width="84" height="24" rx="6" fill="#D9A441" opacity="0.95"/><text x="860" y="135" fill="#111418" font-size="10.5" font-weight="700" text-anchor="middle">covered</text><text x="1026" y="135" fill="#D9A441" font-size="11" text-anchor="end" font-weight="700">Yellow</text><rect x="22" y="158" width="1016" height="38" rx="8" fill="#14181D" stroke="#2A2F37" opacity="0.98"/><circle cx="42" cy="177" r="6" fill="#3FB37F"/><text x="58" y="172" fill="#E6E1DA" font-size="12.5" font-weight="700">Trace + proposals</text><text x="58" y="189" fill="#8B93A1" font-size="10.5">Room trace supports approve/reject, host accept-all, and ...</text><rect x="428" y="163" width="84" height="24" rx="6" fill="#3FB37F" opacity="0.95"/><text x="470" y="179" fill="#111418" font-size="10.5" font-weight="700" text-anchor="middle">covered</text><rect x="558" y="163" width="84" height="24" rx="6" fill="#2A2F37" opacity="0.55"/><text x="600" y="179" fill="#8B93A1" font-size="10.5" font-weight="700" text-anchor="middle">gap</text><rect x="688" y="163" width="84" height="24" rx="6" fill="#3FB37F" opacity="0.95"/><text x="730" y="179" fill="#111418" font-size="10.5" font-weight="700" text-anchor="middle">covered</text><rect x="818" y="163" width="84" height="24" rx="6" fill="#3FB37F" opacity="0.95"/><text x="860" y="179" fill="#111418" font-size="10.5" font-weight="700" text-anchor="middle">covered</text><text x="1026" y="179" fill="#3FB37F" font-size="11" text-anchor="end" font-weight="700">Green</text><rect x="22" y="202" width="1016" height="38" rx="8" fill="#171B20" stroke="#2A2F37" opacity="0.98"/><circle cx="42" cy="221" r="6" fill="#D9A441"/><text x="58" y="216" fill="#E6E1DA" font-size="12.5" font-weight="700">Research + ops workflows</text><text x="58" y="233" fill="#8B93A1" font-size="10.5">GTM, finance, parser, wiki, and cross-file operation work...</text><rect x="428" y="207" width="84" height="24" rx="6" fill="#D9A441" opacity="0.95"/><text x="470" y="223" fill="#111418" font-size="10.5" font-weight="700" text-anchor="middle">covered</text><rect x="558" y="207" width="84" height="24" rx="6" fill="#D9A441" opacity="0.95"/><text x="600" y="223" fill="#111418" font-size="10.5" font-weight="700" text-anchor="middle">covered</text><rect x="688" y="207" width="84" height="24" rx="6" fill="#2A2F37" opacity="0.55"/><text x="730" y="223" fill="#8B93A1" font-size="10.5" font-weight="700" text-anchor="middle">gap</text><rect x="818" y="207" width="84" height="24" rx="6" fill="#D9A441" opacity="0.95"/><text x="860" y="223" fill="#111418" font-size="10.5" font-weight="700" text-anchor="middle">covered</text><text x="1026" y="223" fill="#D9A441" font-size="11" text-anchor="end" font-weight="700">Yellow</text><rect x="22" y="246" width="1016" height="38" rx="8" fill="#14181D" stroke="#2A2F37" opacity="0.98"/><circle cx="42" cy="265" r="6" fill="#3FB37F"/><text x="58" y="260" fill="#E6E1DA" font-size="12.5" font-weight="700">Notes + spreadsheet agent</text><text x="58" y="277" fill="#8B93A1" font-size="10.5">The agent can read spreadsheets, write notes/wiki updates...</text><rect x="428" y="251" width="84" height="24" rx="6" fill="#3FB37F" opacity="0.95"/><text x="470" y="267" fill="#111418" font-size="10.5" font-weight="700" text-anchor="middle">covered</text><rect x="558" y="251" width="84" height="24" rx="6" fill="#2A2F37" opacity="0.55"/><text x="600" y="267" fill="#8B93A1" font-size="10.5" font-weight="700" text-anchor="middle">gap</text><rect x="688" y="251" width="84" height="24" rx="6" fill="#3FB37F" opacity="0.95"/><text x="730" y="267" fill="#111418" font-size="10.5" font-weight="700" text-anchor="middle">covered</text><rect x="818" y="251" width="84" height="24" rx="6" fill="#3FB37F" opacity="0.95"/><text x="860" y="267" fill="#111418" font-size="10.5" font-weight="700" text-anchor="middle">covered</text><text x="1026" y="267" fill="#3FB37F" font-size="11" text-anchor="end" font-weight="700">Green</text><rect x="22" y="290" width="1016" height="38" rx="8" fill="#171B20" stroke="#2A2F37" opacity="0.98"/><circle cx="42" cy="309" r="6" fill="#3FB37F"/><text x="58" y="304" fill="#E6E1DA" font-size="12.5" font-weight="700">Wall</text><text x="58" y="321" fill="#8B93A1" font-size="10.5">Users can create and delete post-its through versioned ro...</text><rect x="428" y="295" width="84" height="24" rx="6" fill="#3FB37F" opacity="0.95"/><text x="470" y="311" fill="#111418" font-size="10.5" font-weight="700" text-anchor="middle">covered</text><rect x="558" y="295" width="84" height="24" rx="6" fill="#2A2F37" opacity="0.55"/><text x="600" y="311" fill="#8B93A1" font-size="10.5" font-weight="700" text-anchor="middle">gap</text><rect x="688" y="295" width="84" height="24" rx="6" fill="#2A2F37" opacity="0.55"/><text x="730" y="311" fill="#8B93A1" font-size="10.5" font-weight="700" text-anchor="middle">gap</text><rect x="818" y="295" width="84" height="24" rx="6" fill="#3FB37F" opacity="0.95"/><text x="860" y="311" fill="#111418" font-size="10.5" font-weight="700" text-anchor="middle">covered</text><text x="1026" y="311" fill="#3FB37F" font-size="11" text-anchor="end" font-weight="700">Green</text><rect x="22" y="334" width="1016" height="38" rx="8" fill="#14181D" stroke="#2A2F37" opacity="0.98"/><circle cx="42" cy="353" r="6" fill="#D9A441"/><text x="58" y="348" fill="#E6E1DA" font-size="12.5" font-weight="700">Multi-user production paths</text><text x="58" y="365" fill="#8B93A1" font-size="10.5">Multiple users can join, see reactive state, use public/p...</text><rect x="428" y="339" width="84" height="24" rx="6" fill="#D9A441" opacity="0.95"/><text x="470" y="355" fill="#111418" font-size="10.5" font-weight="700" text-anchor="middle">covered</text><rect x="558" y="339" width="84" height="24" rx="6" fill="#D9A441" opacity="0.95"/><text x="600" y="355" fill="#111418" font-size="10.5" font-weight="700" text-anchor="middle">covered</text><rect x="688" y="339" width="84" height="24" rx="6" fill="#D9A441" opacity="0.95"/><text x="730" y="355" fill="#111418" font-size="10.5" font-weight="700" text-anchor="middle">covered</text><rect x="818" y="339" width="84" height="24" rx="6" fill="#D9A441" opacity="0.95"/><text x="860" y="355" fill="#111418" font-size="10.5" font-weight="700" text-anchor="middle">covered</text><text x="1026" y="355" fill="#D9A441" font-size="11" text-anchor="end" font-weight="700">Yellow</text><rect x="22" y="378" width="1016" height="38" rx="8" fill="#171B20" stroke="#2A2F37" opacity="0.98"/><circle cx="42" cy="397" r="6" fill="#D9A441"/><text x="58" y="392" fill="#E6E1DA" font-size="12.5" font-weight="700">Long-running /free jobs</text><text x="58" y="409" fill="#8B93A1" font-size="10.5">Free-auto provider work can run as sliced jobs that check...</text><rect x="428" y="383" width="84" height="24" rx="6" fill="#D9A441" opacity="0.95"/><text x="470" y="399" fill="#111418" font-size="10.5" font-weight="700" text-anchor="middle">covered</text><rect x="558" y="383" width="84" height="24" rx="6" fill="#D9A441" opacity="0.95"/><text x="600" y="399" fill="#111418" font-size="10.5" font-weight="700" text-anchor="middle">covered</text><rect x="688" y="383" width="84" height="24" rx="6" fill="#2A2F37" opacity="0.55"/><text x="730" y="399" fill="#8B93A1" font-size="10.5" font-weight="700" text-anchor="middle">gap</text><rect x="818" y="383" width="84" height="24" rx="6" fill="#D9A441" opacity="0.95"/><text x="860" y="399" fill="#111418" font-size="10.5" font-weight="700" text-anchor="middle">covered</text><text x="1026" y="399" fill="#D9A441" font-size="11" text-anchor="end" font-weight="700">Yellow</text><rect x="22" y="422" width="1016" height="38" rx="8" fill="#14181D" stroke="#2A2F37" opacity="0.98"/><circle cx="42" cy="441" r="6" fill="#3FB37F"/><text x="58" y="436" fill="#E6E1DA" font-size="12.5" font-weight="700">Provider parser</text><text x="58" y="453" fill="#8B93A1" font-size="10.5">Provider file/cache ids stay separate from Convex raw fil...</text><rect x="428" y="427" width="84" height="24" rx="6" fill="#3FB37F" opacity="0.95"/><text x="470" y="443" fill="#111418" font-size="10.5" font-weight="700" text-anchor="middle">covered</text><rect x="558" y="427" width="84" height="24" rx="6" fill="#3FB37F" opacity="0.95"/><text x="600" y="443" fill="#111418" font-size="10.5" font-weight="700" text-anchor="middle">covered</text><rect x="688" y="427" width="84" height="24" rx="6" fill="#3FB37F" opacity="0.95"/><text x="730" y="443" fill="#111418" font-size="10.5" font-weight="700" text-anchor="middle">covered</text><rect x="818" y="427" width="84" height="24" rx="6" fill="#3FB37F" opacity="0.95"/><text x="860" y="443" fill="#111418" font-size="10.5" font-weight="700" text-anchor="middle">covered</text><text x="1026" y="443" fill="#3FB37F" font-size="11" text-anchor="end" font-weight="700">Green</text><rect x="22" y="466" width="1016" height="38" rx="8" fill="#171B20" stroke="#2A2F37" opacity="0.98"/><circle cx="42" cy="485" r="6" fill="#3FB37F"/><text x="58" y="480" fill="#E6E1DA" font-size="12.5" font-weight="700">QA system</text><text x="58" y="497" fill="#8B93A1" font-size="10.5">The QA matrix, README cockpit, and visual graphs are gene...</text><rect x="428" y="471" width="84" height="24" rx="6" fill="#3FB37F" opacity="0.95"/><text x="470" y="487" fill="#111418" font-size="10.5" font-weight="700" text-anchor="middle">covered</text><rect x="558" y="471" width="84" height="24" rx="6" fill="#3FB37F" opacity="0.95"/><text x="600" y="487" fill="#111418" font-size="10.5" font-weight="700" text-anchor="middle">covered</text><rect x="688" y="471" width="84" height="24" rx="6" fill="#2A2F37" opacity="0.55"/><text x="730" y="487" fill="#8B93A1" font-size="10.5" font-weight="700" text-anchor="middle">gap</text><rect x="818" y="471" width="84" height="24" rx="6" fill="#3FB37F" opacity="0.95"/><text x="860" y="487" fill="#111418" font-size="10.5" font-weight="700" text-anchor="middle">covered</text><text x="1026" y="487" fill="#3FB37F" font-size="11" text-anchor="end" font-weight="700">Green</text><rect x="22" y="510" width="1016" height="38" rx="8" fill="#14181D" stroke="#2A2F37" opacity="0.98"/><circle cx="42" cy="529" r="6" fill="#E0564E"/><text x="58" y="524" fill="#E6E1DA" font-size="12.5" font-weight="700">Browser E2E dogfood</text><text x="58" y="541" fill="#8B93A1" font-size="10.5">The real React UI is verified against a live/local Convex...</text><rect x="428" y="515" width="84" height="24" rx="6" fill="#E0564E" opacity="0.95"/><text x="470" y="531" fill="#111418" font-size="10.5" font-weight="700" text-anchor="middle">covered</text><rect x="558" y="515" width="84" height="24" rx="6" fill="#2A2F37" opacity="0.55"/><text x="600" y="531" fill="#8B93A1" font-size="10.5" font-weight="700" text-anchor="middle">gap</text><rect x="688" y="515" width="84" height="24" rx="6" fill="#E0564E" opacity="0.95"/><text x="730" y="531" fill="#111418" font-size="10.5" font-weight="700" text-anchor="middle">covered</text><rect x="818" y="515" width="84" height="24" rx="6" fill="#E0564E" opacity="0.95"/><text x="860" y="531" fill="#111418" font-size="10.5" font-weight="700" text-anchor="middle">covered</text><text x="1026" y="531" fill="#E0564E" font-size="11" text-anchor="end" font-weight="700">Red</text><rect x="22" y="554" width="1016" height="38" rx="8" fill="#171B20" stroke="#2A2F37" opacity="0.98"/><circle cx="42" cy="573" r="6" fill="#D9A441"/><text x="58" y="568" fill="#E6E1DA" font-size="12.5" font-weight="700">Unified NodeAgent jobs</text><text x="58" y="585" fill="#8B93A1" font-size="10.5">Every NodeAgent request uses a durable agentJobs root wit...</text><rect x="428" y="559" width="84" height="24" rx="6" fill="#D9A441" opacity="0.95"/><text x="470" y="575" fill="#111418" font-size="10.5" font-weight="700" text-anchor="middle">covered</text><rect x="558" y="559" width="84" height="24" rx="6" fill="#D9A441" opacity="0.95"/><text x="600" y="575" fill="#111418" font-size="10.5" font-weight="700" text-anchor="middle">covered</text><rect x="688" y="559" width="84" height="24" rx="6" fill="#2A2F37" opacity="0.55"/><text x="730" y="575" fill="#8B93A1" font-size="10.5" font-weight="700" text-anchor="middle">gap</text><rect x="818" y="559" width="84" height="24" rx="6" fill="#D9A441" opacity="0.95"/><text x="860" y="575" fill="#111418" font-size="10.5" font-weight="700" text-anchor="middle">covered</text><text x="1026" y="575" fill="#D9A441" font-size="11" text-anchor="end" font-weight="700">Yellow</text><rect x="22" y="598" width="1016" height="38" rx="8" fill="#14181D" stroke="#2A2F37" opacity="0.98"/><circle cx="42" cy="617" r="6" fill="#D9A441"/><text x="58" y="612" fill="#E6E1DA" font-size="12.5" font-weight="700">Agent improvement loop</text><text x="58" y="629" fill="#8B93A1" font-size="10.5">Live traces, workflow feedback, eval gates, UI media revi...</text><rect x="428" y="603" width="84" height="24" rx="6" fill="#D9A441" opacity="0.95"/><text x="470" y="619" fill="#111418" font-size="10.5" font-weight="700" text-anchor="middle">covered</text><rect x="558" y="603" width="84" height="24" rx="6" fill="#D9A441" opacity="0.95"/><text x="600" y="619" fill="#111418" font-size="10.5" font-weight="700" text-anchor="middle">covered</text><rect x="688" y="603" width="84" height="24" rx="6" fill="#D9A441" opacity="0.95"/><text x="730" y="619" fill="#111418" font-size="10.5" font-weight="700" text-anchor="middle">covered</text><rect x="818" y="603" width="84" height="24" rx="6" fill="#D9A441" opacity="0.95"/><text x="860" y="619" fill="#111418" font-size="10.5" font-weight="700" text-anchor="middle">covered</text><text x="1026" y="619" fill="#D9A441" font-size="11" text-anchor="end" font-weight="700">Yellow</text><text x="28" y="698" fill="#8B93A1" font-size="10">Green = production-shaped. Yellow = implemented but needs live scale/storage/repeated-provider proof. Red = declared gap; manual/missing checks render as gaps.</text></svg>